<?xml version="1.0" encoding="utf-8"?>
<!-- Generator: Adobe Illustrator 25.4.1, SVG Export Plug-In . SVG Version: 6.00 Build 0)  -->
<svg version="1.1" id="Layer_1" xmlns="http://www.w3.org/2000/svg" xmlns:xlink="http://www.w3.org/1999/xlink" x="0px" y="0px"
	 viewBox="0 0 139 20" style="enable-background:new 0 0 139 20;" xml:space="preserve">
<style type="text/css">
	.st0{display:none;}
	.st1{display:inline;fill:none;}
	.st2{display:inline;}
	.st3{fill-rule:evenodd;clip-rule:evenodd;fill:url(#SVGID_1_);}
	
		.st4{opacity:0.5;fill-rule:evenodd;clip-rule:evenodd;fill:url(#SVGID_00000176750685516020767890000004314058355219356809_);enable-background:new    ;}
	
		.st5{opacity:0.15;fill-rule:evenodd;clip-rule:evenodd;fill:url(#SVGID_00000123443111569382456710000009542505515665190035_);enable-background:new    ;}
	.st6{fill:#FFFFFF;}
	.st7{fill-rule:evenodd;clip-rule:evenodd;fill:url(#Path_2_00000166657294896984403460000002198844783309610636_);}
	
		.st8{opacity:0.5;fill-rule:evenodd;clip-rule:evenodd;fill:url(#Path_3_00000143597915608922665830000008205595559853111985_);enable-background:new    ;}
	
		.st9{opacity:0.15;fill-rule:evenodd;clip-rule:evenodd;fill:url(#Path_4_00000049916301405959871150000018091973879473089198_);enable-background:new    ;}
</style>
<g class="st0">
	<path class="st1" d="M0,0"/>
	<g class="st2">
		
			<linearGradient id="SVGID_1_" gradientUnits="userSpaceOnUse" x1="-221.1816" y1="387.4391" x2="-221.7285" y2="386.4391" gradientTransform="matrix(16.789 0 0 -19.704 3726.2039 7634.5283)">
			<stop  offset="0" style="stop-color:#33D35E"/>
			<stop  offset="1" style="stop-color:#2AB6D9"/>
		</linearGradient>
		<path class="st3" d="M10.8,0L0,19.7h6L16.8,0H10.8z"/>
		
			<linearGradient id="SVGID_00000036235192899349458580000007407740442397316992_" gradientUnits="userSpaceOnUse" x1="-221.1816" y1="387.4391" x2="-221.7285" y2="386.4391" gradientTransform="matrix(16.789 0 0 -19.704 3733.5718 7634.5283)">
			<stop  offset="0" style="stop-color:#33D35E"/>
			<stop  offset="1" style="stop-color:#2AB6D9"/>
		</linearGradient>
		
			<path style="opacity:0.5;fill-rule:evenodd;clip-rule:evenodd;fill:url(#SVGID_00000036235192899349458580000007407740442397316992_);enable-background:new    ;" d="
			M18.2,0L7.4,19.7h6L24.2,0H18.2z"/>
		
			<linearGradient id="SVGID_00000160177322516786048890000010160719665251718815_" gradientUnits="userSpaceOnUse" x1="-221.1807" y1="387.4391" x2="-221.7277" y2="386.4391" gradientTransform="matrix(16.788 0 0 -19.704 3740.7046 7634.5283)">
			<stop  offset="0" style="stop-color:#33D35E"/>
			<stop  offset="1" style="stop-color:#2AB6D9"/>
		</linearGradient>
		
			<path style="opacity:0.15;fill-rule:evenodd;clip-rule:evenodd;fill:url(#SVGID_00000160177322516786048890000010160719665251718815_);enable-background:new    ;" d="
			M25.5,0L14.7,19.7h6L31.5,0H25.5z"/>
	</g>
</g>
<g>
	<path id="Path_1" class="st6" d="M37.9,15.8c2.7,0.1,5.2-1.6,6-4.2h-3.9c-0.4,0.7-1.2,1.1-2.1,1.1c-1.2,0.1-2.2-0.8-2.3-2H44
		c0.1-0.3,0.1-0.7,0.1-1c0-3.3-2.6-5.9-5.8-6c-0.1,0-0.2,0-0.4,0c-3.3-0.1-6,2.4-6.2,5.7c0,0.1,0,0.2,0,0.4c-0.1,3.3,2.6,6,5.9,6.1
		C37.7,15.9,37.8,15.9,37.9,15.8L37.9,15.8z M40.2,8.5h-4.6c0.2-1.1,1.2-1.8,2.3-1.8C39,6.7,40,7.5,40.2,8.5L40.2,8.5z M51.2,15.8
		c1.2,0,2.5-0.4,3.4-1.2l0.3,0.8h3V4.1H55L54.6,5c-1-0.8-2.2-1.2-3.5-1.2c-3.2-0.1-5.9,2.4-6,5.6c0,0.2,0,0.3,0,0.5
		c-0.2,3.2,2.3,5.9,5.5,6.1C50.9,15.8,51,15.8,51.2,15.8L51.2,15.8z M51.7,12.4c-1.4,0-2.5-1.1-2.5-2.5c0,0,0-0.1,0-0.1
		c0-1.4,1.1-2.6,2.5-2.6c1.4,0,2.6,1.1,2.6,2.5c0,0,0,0.1,0,0.1c0.1,1.4-1,2.5-2.4,2.6C51.8,12.4,51.7,12.4,51.7,12.4z M64.8,15.8
		c3,0,5-1.6,5-3.9c0-2.9-2.4-3.3-4.2-3.6c-1.1-0.2-2-0.3-2-1c0-0.5,0.4-0.8,1-0.8c0.7,0,1.2,0.3,1.2,1.1h3.7c0-2.3-1.9-3.8-4.8-3.8
		c-2.9,0-4.9,1.5-4.9,3.8c0,2.8,2.3,3.3,4.1,3.6c1.1,0.2,2,0.4,2,1c0,0.6-0.5,0.9-1.1,0.9c-0.6,0.1-1.2-0.4-1.3-1c0-0.1,0-0.1,0-0.2
		h-3.8C59.8,14.2,61.7,15.8,64.8,15.8L64.8,15.8z M72.9,19.7c2.9,0,4.3-1.3,5.9-4.7l4.8-10.9h-4.2l-2.2,6.3l-2.4-6.3h-4.3l4.7,10.4
		c-0.5,1.4-1,1.8-2.5,1.8h-1.1v3.4L72.9,19.7z M91.4,15.8c3.2,0.1,5.9-2.4,6-5.6c0-0.2,0-0.3,0-0.5c0.2-3.2-2.3-5.9-5.5-6
		c-0.2,0-0.3,0-0.5,0c-1,0-2,0.3-2.8,0.8V0h-3.9v15.5h2.9l0.4-0.8C89,15.4,90.2,15.9,91.4,15.8L91.4,15.8z M90.9,12.4
		c-1.4,0-2.5-1.1-2.5-2.5c0,0,0-0.1,0-0.1c0-1.4,1.1-2.6,2.5-2.6c1.4,0,2.6,1.1,2.6,2.5c0,0,0,0.1,0,0.1c0,1.4-1,2.5-2.4,2.6
		C91,12.4,90.9,12.4,90.9,12.4L90.9,12.4z M104.5,15.8c1.2,0,2.5-0.4,3.4-1.2l0.3,0.8h3V4.1h-2.9L108,5c-1-0.8-2.2-1.2-3.5-1.2
		c-3.2-0.1-5.9,2.4-6,5.6c0,0.2,0,0.3,0,0.5c-0.2,3.2,2.3,5.9,5.5,6.1C104.2,15.8,104.3,15.8,104.5,15.8L104.5,15.8z M105,12.4
		c-1.4,0-2.5-1.1-2.5-2.5c0,0,0-0.1,0-0.1c0-1.4,1.1-2.5,2.5-2.5c1.4,0,2.5,1.1,2.5,2.5c0.1,1.4-1,2.5-2.4,2.6
		C105.1,12.4,105.1,12.4,105,12.4z M117.7,15.5V9.4c0-1.4,0.7-2.3,1.9-2.3c1,0,1.5,0.7,1.5,2v6.4h3.9V8.5c0-2.9-1.7-4.8-4.4-4.8
		c-1.4,0-2.7,0.5-3.6,1.5l-0.5-1.2h-2.7v11.4L117.7,15.5L117.7,15.5z M131.4,15.5v-4.8l2.8,4.8h4.6L135,9.5l3.5-5.4h-4.4l-2.7,4.5V0
		h-3.9v15.5L131.4,15.5L131.4,15.5z"/>
	<g id="Group_1">
		
			<linearGradient id="Path_2_00000019668148964616265480000014381902372271466929_" gradientUnits="userSpaceOnUse" x1="-221.1744" y1="387.4353" x2="-221.7214" y2="386.4353" gradientTransform="matrix(16.789 0 0 -19.7 3726.2039 7632.9004)">
			<stop  offset="0" style="stop-color:#33D35E"/>
			<stop  offset="1" style="stop-color:#2AB6D9"/>
		</linearGradient>
		
			<path id="Path_2" style="fill-rule:evenodd;clip-rule:evenodd;fill:url(#Path_2_00000019668148964616265480000014381902372271466929_);" d="
			M10.9,0L0.1,19.7h6L16.9,0H10.9z"/>
		
			<linearGradient id="Path_3_00000013891860377101600470000012159481242157094813_" gradientUnits="userSpaceOnUse" x1="-221.1744" y1="387.4353" x2="-221.7214" y2="386.4353" gradientTransform="matrix(16.789 0 0 -19.7 3733.5718 7632.9004)">
			<stop  offset="0" style="stop-color:#33D35E"/>
			<stop  offset="1" style="stop-color:#2AB6D9"/>
		</linearGradient>
		
			<path id="Path_3" style="opacity:0.5;fill-rule:evenodd;clip-rule:evenodd;fill:url(#Path_3_00000013891860377101600470000012159481242157094813_);enable-background:new    ;" d="
			M18.3,0L7.5,19.7h6L24.3,0H18.3z"/>
		
			<linearGradient id="Path_4_00000023283161614594085470000010701284157549232781_" gradientUnits="userSpaceOnUse" x1="-221.1718" y1="387.4353" x2="-221.7188" y2="386.4353" gradientTransform="matrix(16.786 0 0 -19.7 3740.2349 7632.9004)">
			<stop  offset="0" style="stop-color:#33D35E"/>
			<stop  offset="1" style="stop-color:#2AB6D9"/>
		</linearGradient>
		
			<path id="Path_4" style="opacity:0.15;fill-rule:evenodd;clip-rule:evenodd;fill:url(#Path_4_00000023283161614594085470000010701284157549232781_);enable-background:new    ;" d="
			M25.7,0L14.9,19.7h6L31.6,0H25.7z"/>
	</g>
</g>
</svg>
